<svg width="24" height="16" viewBox="0 0 24 16" fill="none" xmlns="http://www.w3.org/2000/svg">
<path fill-rule="evenodd" clip-rule="evenodd" d="M22.7599 10.7509C22.7599 11.0785 22.5375 11.3355 22.254 11.3355H21.6447C21.3612 9.46687 19.9564 8.03819 18.2587 8.03819C16.5631 8.03819 15.1572 9.46687 14.8748 11.3355H9.12589C8.8445 9.46687 7.43754 8.03819 5.74092 8.03819C4.04429 8.03819 2.63837 9.46687 2.35594 11.3355H1.74661C1.46315 11.3355 1.24072 11.0785 1.24072 10.7509V8.71248C1.24072 7.95092 1.64315 7.25153 2.25559 6.96459L2.66734 6.75896C2.84321 6.67527 3.01287 6.57365 3.1815 6.47083H19.8384L20.7985 6.80798C21.953 7.21327 22.7599 8.47337 22.7599 9.86977V10.7509ZM18.2582 14.5639C17.0447 14.5639 16.0557 13.4209 16.0557 12.0185C16.0557 10.6138 17.0447 9.47083 18.2582 9.47083C19.4737 9.47083 20.4628 10.6138 20.4628 12.0185C20.4628 13.4209 19.4737 14.5639 18.2582 14.5639ZM5.74108 14.5639C4.52655 14.5639 3.53857 13.4209 3.53857 12.0185C3.53857 10.6138 4.52655 9.47083 5.74108 9.47083C6.95665 9.47083 7.94566 10.6138 7.94566 12.0185C7.94566 13.4209 6.95665 14.5639 5.74108 14.5639ZM4.96969 4.85514L6.05801 3.41331C7.02633 2.1556 8.40329 1.43229 9.83921 1.43229H10.1641V5.03567H4.81348C4.8652 4.9735 4.92107 4.9197 4.96969 4.85514ZM11.4048 1.43229H11.4979C12.7859 1.43229 14.0128 1.99898 14.9511 3.02356L16.5929 4.82884C16.6664 4.90775 16.7554 4.96274 16.834 5.03567H11.4048V1.43229ZM21.1592 5.43495L18.5387 4.51319C18.1342 4.37451 17.7556 4.12224 17.4452 3.78749L15.8055 1.98461C14.6344 0.704177 13.1054 0 11.4988 0H9.83836C8.04759 0 6.33234 0.89666 5.12608 2.46641L4.03673 3.90705C3.5236 4.57297 2.8853 5.1002 2.18389 5.43735L1.77525 5.64178C0.697272 6.14631 0 7.35142 0 8.71195V10.7504C0 11.8646 0.784172 12.7684 1.74628 12.7684H2.36079C2.66598 14.606 4.06362 16 5.74059 16C7.4186 16 8.81521 14.606 9.12039 12.7684H14.8806C15.1848 14.606 16.5814 16 18.2584 16C19.9364 16 21.334 14.606 21.6382 12.7684H22.2537C23.2169 12.7684 24 11.8646 24 10.7504V9.86924C24 7.84518 22.832 6.02316 21.1592 5.43495Z" fill="#51267D"/>
</svg>
