<svg width="245" height="200" viewBox="0 0 245 200" fill="none" xmlns="http://www.w3.org/2000/svg">
<path d="M108.07 59.9064C108.07 59.9064 89.1439 44.6664 70.2237 46.7398C51.3036 48.8131 32.1875 75.3664 32.1875 75.3664L38.3125 80.4197C38.3125 80.4197 70.0584 51.7531 87.2512 72.9464C104.444 94.1397 108.07 59.9064 108.07 59.9064Z" fill="#51267D"/>
<path opacity="0.2" d="M108.07 59.9064C108.07 59.9064 89.1439 44.6664 70.2237 46.7398C51.3036 48.8131 32.1875 75.3664 32.1875 75.3664L38.3125 80.4197C38.3125 80.4197 70.0584 51.7531 87.2512 72.9464C104.444 94.1397 108.07 59.9064 108.07 59.9064Z" fill="white"/>
<path d="M93.7734 57.7803H28.7871V103.48H93.7734V57.7803Z" fill="#F4C243"/>
<path opacity="0.45" d="M198.952 155.367C197.755 155.104 196.626 154.554 195.648 153.757C194.67 152.96 193.868 151.936 193.299 150.76V150.693L164.297 90.5801L148.335 102.88L159.623 141.507C159.921 142.522 159.988 143.601 159.82 144.651C159.651 145.701 159.252 146.691 158.655 147.537C158.059 148.383 157.283 149.059 156.395 149.507C155.507 149.956 154.532 150.164 153.553 150.113C144.978 149.687 135.858 149.447 126.383 149.447C77.4319 149.447 37.748 155.653 37.748 163.313C37.748 170.973 77.4319 177.187 126.383 177.187C175.334 177.187 214.987 170.98 214.987 163.333C214.987 160.36 209.052 157.62 198.952 155.367Z" fill="#E6E6E6"/>
<path d="M106.723 158.787C106.723 158.787 107.629 162.12 110.318 162.514C113.007 162.907 113.571 165.847 111.102 166.447C108.634 167.047 102.527 163.28 102.527 163.28L102.913 159.047L106.723 158.787Z" fill="#51267D"/>
<path d="M54.3719 158.22C54.3719 158.22 51.2604 158.953 50.6969 161.84C50.1334 164.726 47.4016 165.113 47.0219 162.386C46.6421 159.66 50.5805 153.333 50.5805 153.333L54.427 154.086L54.3719 158.22Z" fill="#51267D"/>
<path d="M54.7874 108.447C54.7874 108.447 51.9209 123.007 62.2416 129.247C72.5622 135.487 105.117 124.254 100.088 159.621H107.352C107.352 159.621 116.742 130.287 92.3827 119.861L84.9898 110.734L54.7874 108.447Z" fill="black"/>
<path d="M155.008 97.9373L152.537 95.3672L137.083 112.969L139.554 115.539L155.008 97.9373Z" fill="#F4C243"/>
<path opacity="0.08" d="M155.008 97.9373L152.537 95.3672L137.083 112.969L139.554 115.539L155.008 97.9373Z" fill="black"/>
<path d="M153.805 96.6775L151.334 94.1074L135.88 111.709L138.351 114.279L153.805 96.6775Z" fill="#F4C243"/>
<path d="M160.526 99.9156C164.499 95.3904 165.472 89.3835 162.698 86.4989C159.925 83.6143 154.456 84.9443 150.483 89.4695C146.51 93.9947 145.537 100.002 148.311 102.886C151.084 105.771 156.553 104.441 160.526 99.9156Z" fill="#F4C243"/>
<path opacity="0.08" d="M160.526 99.9156C164.499 95.3904 165.472 89.3835 162.698 86.4989C159.925 83.6143 154.456 84.9443 150.483 89.4695C146.51 93.9947 145.537 100.002 148.311 102.886C151.084 105.771 156.553 104.441 160.526 99.9156Z" fill="black"/>
<path d="M159.319 98.6656C163.292 94.1404 164.265 88.1335 161.491 85.2489C158.718 82.3643 153.249 83.6942 149.276 88.2194C145.303 92.7447 144.33 98.7515 147.104 101.636C149.877 104.521 155.346 103.191 159.319 98.6656Z" fill="#F4C243"/>
<path opacity="0.57" d="M157.614 96.8923C160.239 93.903 160.881 89.9351 159.05 88.0298C157.218 86.1246 153.605 87.0034 150.981 89.9927C148.356 92.982 147.713 96.9498 149.545 98.8551C151.377 100.76 154.99 99.8816 157.614 96.8923Z" fill="white"/>
<path d="M133.677 61.5528C133.677 61.5528 130.915 65.9194 128.232 68.0661C127.972 68.2724 127.677 68.4209 127.364 68.503C127.051 68.5852 126.727 68.5995 126.409 68.545C126.091 68.4905 125.786 68.3683 125.511 68.1855C125.236 68.0027 124.998 67.7628 124.808 67.4794C123.834 65.9928 122.916 63.6728 124.135 61.1394L125.715 56.5595C126.124 55.6841 126.773 54.9681 127.571 54.5098C128.37 54.0514 129.279 53.8732 130.174 53.9995C133.524 54.2128 135.478 58.9861 133.677 61.5528Z" fill="#F4A28C"/>
<path d="M126.683 57.5L114.219 62.9667L115.75 72.62L124.735 64.64L126.683 57.5Z" fill="#F4A28C"/>
<path d="M132.619 60.8869C131.421 59.8931 130.331 58.7523 129.373 57.4869C129.286 58.3439 128.972 59.1548 128.468 59.8202C127.964 60.4857 127.293 60.9768 126.537 61.2336C125.808 61.4948 125.019 61.472 124.304 61.1692C123.588 60.8663 122.992 60.3023 122.617 59.5736L126.66 54.3736C127.212 53.6041 127.946 53.0118 128.783 52.6596C129.619 52.3075 130.528 52.2086 131.413 52.3736C132.177 52.5168 132.932 52.7127 133.673 52.9602C135.51 53.6269 136.79 56.4402 138.812 56.5336C139.015 56.5444 139.212 56.6124 139.384 56.731C139.556 56.8497 139.697 57.0148 139.792 57.2103C139.888 57.4058 139.935 57.625 139.93 57.8464C139.924 58.0678 139.866 58.2839 139.761 58.4736C138.769 60.2669 136.601 62.5469 133.948 61.6336C133.471 61.4659 133.022 61.2137 132.619 60.8869V60.8869Z" fill="black"/>
<path d="M127.032 61.4737C127.032 61.4737 128.196 59.8737 127.032 59.0137C125.868 58.1537 124.16 60.4603 125.476 62.0003L127.032 61.4737Z" fill="#F4A28C"/>
<path d="M131.81 64.2061L131.663 66.7194C131.651 66.8601 131.607 66.9952 131.534 67.1127C131.462 67.2301 131.364 67.3262 131.249 67.3923C131.135 67.4584 131.007 67.4924 130.877 67.4913C130.747 67.4902 130.619 67.4541 130.506 67.3861L128.846 66.3861L131.81 64.2061Z" fill="#F4A28C"/>
<path opacity="0.31" d="M123.726 65.5265C123.726 65.5265 124.099 62.4932 125.104 61.3398C125.104 61.3398 120.565 63.0065 120.461 68.4399L123.726 65.5265Z" fill="#CE8172"/>
<path opacity="0.08" d="M41.4414 102.299C41.4414 102.299 41.2454 70.8527 75.9497 64.2061L55.5596 103.479H41.4721L41.4414 102.299Z" fill="black"/>
<path d="M117.405 75.9596L116.376 69.4463C115.974 66.79 114.958 64.2883 113.425 62.1755C111.892 60.0627 109.892 58.408 107.611 57.3663C105.626 56.5025 103.55 55.9091 101.431 55.5996C98.7114 55.1863 94.9017 55.5997 90.6387 56.8197C72.2759 62.0663 58.8009 78.9996 56.0141 99.413L54.7891 108.446L84.9914 110.733C84.9914 110.733 83.4602 101.4 94.1789 101.4C104.898 101.4 118.471 101.52 117.405 75.9596Z" fill="#51267D"/>
<path opacity="0.08" d="M87.809 65.8604C87.809 65.8604 73.1518 68.667 57.0431 93.9337L54.7891 108.447L77.7088 110.3L87.809 65.8604Z" fill="black"/>
<path d="M104.616 77.4801C107.476 67.0935 96.3839 58.6935 88.4765 65.2935C81.8616 70.8068 74.3891 80.7335 74.0951 97.4868C73.5867 127.72 100.194 122.313 136.203 110.733L135.057 101.927C135.057 101.927 91.9372 110.8 97.7927 95.5468C100.243 89.1668 103.097 83.0068 104.616 77.4801Z" fill="#51267D"/>
<path opacity="0.2" d="M104.616 77.4801C107.476 67.0935 96.3839 58.6935 88.4765 65.2935C81.8616 70.8068 74.3891 80.7335 74.0951 97.4868C73.5867 127.72 100.194 122.313 136.203 110.733L135.057 101.927C135.057 101.927 91.9372 110.8 97.7927 95.5468C100.243 89.1668 103.097 83.0068 104.616 77.4801Z" fill="white"/>
<path d="M89.4809 119.934C89.4809 119.934 90.369 153.367 54.4275 159.62L53.0371 152.534C53.0371 152.534 81.8246 144.767 63.2291 123.96L89.4809 119.934Z" fill="black"/>
<path opacity="0.08" d="M146.093 164.894C148.251 164.894 150.001 164.189 150.001 163.32C150.001 162.451 148.251 161.747 146.093 161.747C143.935 161.747 142.186 162.451 142.186 163.32C142.186 164.189 143.935 164.894 146.093 164.894Z" fill="black"/>
<path opacity="0.08" d="M161.039 160.821C163.197 160.821 164.946 160.116 164.946 159.247C164.946 158.378 163.197 157.674 161.039 157.674C158.88 157.674 157.131 158.378 157.131 159.247C157.131 160.116 158.88 160.821 161.039 160.821Z" fill="black"/>
<path opacity="0.08" d="M176.087 163.967C178.246 163.967 179.995 163.263 179.995 162.394C179.995 161.525 178.246 160.82 176.087 160.82C173.929 160.82 172.18 161.525 172.18 162.394C172.18 163.263 173.929 163.967 176.087 163.967Z" fill="black"/>
<path opacity="0.08" d="M199.13 165.547C201.289 165.547 203.038 164.843 203.038 163.974C203.038 163.105 201.289 162.4 199.13 162.4C196.972 162.4 195.223 163.105 195.223 163.974C195.223 164.843 196.972 165.547 199.13 165.547Z" fill="black"/>
<path opacity="0.08" d="M131.277 160.467C133.482 160.467 135.27 159.745 135.27 158.854C135.27 157.963 133.482 157.24 131.277 157.24C129.071 157.24 127.283 157.963 127.283 158.854C127.283 159.745 129.071 160.467 131.277 160.467Z" fill="black"/>
<path d="M135.277 103.62C135.277 103.62 145.188 102.48 146.057 106.693C146.927 110.907 145.028 113.14 136.11 110.027L135.277 103.62Z" fill="#F4A28C"/>
<path d="M36.5488 103.48C36.5488 103.48 37.976 109.773 43.6906 108.447C49.4052 107.12 45.3259 99.4 36.5488 103.48Z" fill="#F4A28C"/>
</svg>
